HIERARCHY
ROOT Hips
{
	OFFSET -0.001795 -0.223333 0.028219
	CHANNELS 6 Xposition Yposition Zposition Zrotation Yrotation Xrotation 
	JOINT LeftUpLeg
	{
		OFFSET 0.069520 -0.091406 -0.006815
		CHANNELS 3 Zrotation Yrotation Xrotation
		JOINT LeftLeg
		{
			OFFSET 0.034277 -0.375199 -0.004496
			CHANNELS 3 Zrotation Yrotation Xrotation
			JOINT LeftFoot
			{
				OFFSET -0.013596 -0.397961 -0.043693
				CHANNELS 3 Zrotation Yrotation Xrotation
				JOINT LeftToe
				{
					OFFSET 0.026358 -0.055791 0.119288
					CHANNELS 3 Zrotation Yrotation Xrotation
					End Site
					{
						OFFSET 0.000000 0.000000 0.000000
					}
				}
			}
		}
	}
	JOINT RightUpLeg
	{
		OFFSET -0.067670 -0.090522 -0.004320
		CHANNELS 3 Zrotation Yrotation Xrotation
		JOINT RightLeg
		{
			OFFSET -0.038290 -0.382569 -0.008850
			CHANNELS 3 Zrotation Yrotation Xrotation
			JOINT RightFoot
			{
				OFFSET 0.015774 -0.398415 -0.042312
				CHANNELS 3 Zrotation Yrotation Xrotation
				JOINT RightToe
				{
					OFFSET -0.025372 -0.048144 0.123348
					CHANNELS 3 Zrotation Yrotation Xrotation
					End Site
					{
						OFFSET 0.000000 0.000000 0.000000
					}
				}
			}
		}
	}
	JOINT Spine
	{
		OFFSET -0.002533 0.108963 -0.026696
		CHANNELS 3 Zrotation Yrotation Xrotation
		JOINT Spine1
		{
			OFFSET 0.005487 0.135180 0.001092
			CHANNELS 3 Zrotation Yrotation Xrotation
			JOINT Spine2
			{
				OFFSET 0.001457 0.052922 0.025425
				CHANNELS 3 Zrotation Yrotation Xrotation
				JOINT Neck
				{
					OFFSET -0.002778 0.213870 -0.042857
					CHANNELS 3 Zrotation Yrotation Xrotation
					JOINT Head
					{
						OFFSET 0.005152 0.064970 0.051349
						CHANNELS 3 Zrotation Yrotation Xrotation
						End Site
						{
							OFFSET 0.000000 0.000000 0.000000
						}
					}
				}
				JOINT LeftShoulder
				{
					OFFSET 0.078845 0.121749 -0.034090
					CHANNELS 3 Zrotation Yrotation Xrotation
					JOINT LeftArm
					{
						OFFSET 0.090977 0.030469 -0.008868
						CHANNELS 3 Zrotation Yrotation Xrotation
						JOINT LeftForeArm
						{
							OFFSET 0.259612 -0.012772 -0.027456
							CHANNELS 3 Zrotation Yrotation Xrotation
							JOINT LeftHand
							{
								OFFSET 0.249234 0.008986 -0.001171
								CHANNELS 3 Zrotation Yrotation Xrotation
								End Site
								{
									OFFSET 0.000000 0.000000 0.000000
								}
							}
						}
					}
				}
				JOINT RightShoulder
				{
					OFFSET -0.081759 0.118833 -0.038615
					CHANNELS 3 Zrotation Yrotation Xrotation
					JOINT RightArm
					{
						OFFSET -0.096012 0.032551 -0.009143
						CHANNELS 3 Zrotation Yrotation Xrotation
						JOINT RightForeArm
						{
							OFFSET -0.253742 -0.013329 -0.021401
							CHANNELS 3 Zrotation Yrotation Xrotation
							JOINT RightHand
							{
								OFFSET -0.255298 0.007772 -0.005559
								CHANNELS 3 Zrotation Yrotation Xrotation
								End Site
								{
									OFFSET 0.000000 0.000000 0.000000
								}
							}
						}
					}
				}
			}
		}
	}
}
MOTION
Frames: 10
Frame Time: 0.050000
0.058321 0.908743 1.241616 5.345838 -9.921301 -1.568023 8.468232 0.290381 4.814117 -11.167494 6.073858 39.102651 -5.011401 -8.539371 4.054243 0.000000 0.000000 0.000000 -0.759440 3.022031 -26.387073 5.530071 -0.166086 20.936893 -5.462908 -15.777943 9.310562 0.000000 0.000000 0.000000 2.774624 0.037782 -0.760872 8.336866 -3.652791 -3.036634 -11.895443 -3.784221 4.300509 10.254127 -6.508770 -10.753144 0.000000 0.000000 0.000000 -23.470769 -1.117257 0.178582 -41.399736 -12.765319 -1.161125 -29.760537 -30.900950 10.082374 0.000000 0.000000 0.000000 22.157677 -13.902043 -11.624223 45.346883 -12.353491 -8.379728 19.774780 32.733086 5.891068 0.000000 0.000000 0.000000 
0.044011 0.914200 1.274132 6.512218 -17.757199 -2.892948 8.925707 0.330969 -1.900040 -10.140521 9.488669 48.063047 -3.525912 -6.731605 1.746638 0.000000 0.000000 0.000000 2.426545 3.413544 -23.443177 1.054126 1.519434 21.684363 -2.562818 -9.114263 5.029493 0.000000 0.000000 0.000000 2.838793 0.002298 -0.129812 8.124708 -3.508929 -3.346091 -12.134220 -3.323121 4.425264 10.458587 -7.113897 -9.282487 0.000000 0.000000 0.000000 -25.511828 -1.916305 1.869988 -39.567339 -11.855826 -1.892938 -27.770306 -30.900183 9.678759 0.000000 0.000000 0.000000 22.595140 -12.504556 -11.962726 44.466407 -11.535305 -7.733415 21.017196 37.116955 6.685758 0.000000 0.000000 0.000000 
0.030775 0.919098 1.300768 7.697504 -28.026501 -4.184380 8.810101 0.583908 -6.979443 -7.189654 11.637130 50.288947 -1.531702 -3.218314 -0.005906 0.000000 0.000000 0.000000 5.043967 3.578335 -21.203785 -2.073489 2.749380 21.239054 0.527197 -1.431267 3.134080 0.000000 0.000000 0.000000 2.840765 0.029677 -0.542709 8.251088 -3.497353 -2.160379 -12.358826 -2.163396 4.143563 11.372455 -7.819806 -10.076210 0.000000 0.000000 0.000000 -24.516701 -1.403041 2.794648 -40.929577 -12.043709 -2.154995 -26.505971 -32.785259 10.243593 0.000000 0.000000 0.000000 21.365365 -10.698952 -11.574330 45.716402 -9.880163 -7.328701 24.578102 41.645777 8.228509 0.000000 0.000000 0.000000 
0.018631 0.926023 1.322238 9.760325 -39.840702 -6.517202 7.458385 0.846728 -10.004353 -4.192984 12.261820 46.754485 0.342793 0.024454 -5.810208 0.000000 0.000000 0.000000 6.971671 3.152688 -18.023806 -4.755949 3.504543 19.657783 4.721339 8.419614 3.093983 0.000000 0.000000 0.000000 3.715140 -0.001020 0.108360 7.147355 -2.887049 -2.543050 -11.706418 -1.252111 4.813074 10.707751 -7.903217 -8.645420 0.000000 0.000000 0.000000 -27.059982 -1.291060 5.114014 -39.018404 -11.371702 -3.172387 -25.584119 -34.505808 10.771496 0.000000 0.000000 0.000000 19.202427 -10.975811 -12.239185 46.895832 -9.424858 -7.520610 32.296342 46.908648 11.352112 0.000000 0.000000 0.000000 
0.008504 0.931916 1.339152 12.200023 -52.743608 -8.326304 6.131088 1.262131 -12.641807 -1.883593 11.406708 39.817053 0.349718 1.525329 -5.851414 0.000000 0.000000 0.000000 8.334070 3.100311 -17.181358 -6.410295 3.667625 17.708107 9.130981 15.586643 5.638224 0.000000 0.000000 0.000000 4.324175 0.034406 -0.283161 6.065452 -2.210710 -2.895316 -11.040641 -0.365294 4.855395 11.309730 -8.476290 -9.209220 0.000000 0.000000 0.000000 -26.081711 0.679101 5.974664 -40.722487 -11.312636 -3.692203 -24.304320 -33.137067 10.282316 0.000000 0.000000 0.000000 17.284502 -11.013366 -12.983037 48.857713 -8.955395 -8.013656 42.474209 48.687759 14.608592 0.000000 0.000000 0.000000 
0.000426 0.937992 1.352550 19.258018 -66.529144 -15.169755 4.438283 1.746429 -14.220016 -0.097231 10.156350 32.848261 -0.173497 2.527771 -6.234025 0.000000 0.000000 0.000000 9.373749 2.232181 -14.167371 -8.827436 3.492047 14.934944 12.715561 21.651023 7.164308 0.000000 0.000000 0.000000 4.755514 -0.012316 0.407499 5.020634 -1.269503 -1.747920 -9.030033 -0.277999 2.902352 8.814480 -7.042599 -9.547604 0.000000 0.000000 0.000000 -28.899798 1.564117 9.149666 -38.604001 -10.184527 -4.984276 -22.993577 -33.967741 10.163834 0.000000 0.000000 0.000000 15.822327 -10.747670 -14.001678 47.512223 -9.734218 -7.972445 53.599915 49.389661 17.732723 0.000000 0.000000 0.000000 
-0.005972 0.940480 1.363661 48.301500 -78.563262 -43.539117 1.655906 2.027249 -15.702021 2.832153 8.668583 27.784983 -3.373574 -1.221918 -5.465690 0.000000 0.000000 0.000000 9.043818 1.744788 -13.180129 -8.225206 3.053044 13.870807 15.463915 24.295027 9.192244 0.000000 0.000000 0.000000 4.020924 -0.129314 1.690403 3.337565 -0.326531 -2.969660 -6.732224 -2.130837 3.941395 8.367100 -6.707425 -9.423434 0.000000 0.000000 0.000000 -31.209888 8.369662 9.788513 -38.322322 -13.863442 -5.505867 -22.096328 -31.506477 9.546390 0.000000 0.000000 0.000000 13.551019 -7.780323 -15.013633 47.992486 -11.050670 -8.657672 61.525600 51.428564 18.884135 0.000000 0.000000 0.000000 
-0.012337 0.941846 1.373252 131.250377 -78.862740 -126.873830 0.449468 3.127585 -17.008063 4.964562 8.433315 24.926824 -6.824888 -3.618907 -4.572826 0.000000 0.000000 0.000000 9.665872 0.928953 -10.295210 -8.492639 2.846753 13.051407 14.621551 25.012766 7.583388 0.000000 0.000000 0.000000 2.642109 -0.191766 3.746211 5.505669 0.522070 -2.358203 -6.005587 -2.542437 2.109881 5.674763 -5.152182 -9.857671 0.000000 0.000000 0.000000 -33.996623 9.041876 15.055191 -36.410426 -15.979833 -6.550516 -18.622099 -30.694419 7.556436 0.000000 0.000000 0.000000 12.483822 -5.970818 -16.665702 46.420377 -11.520502 -8.580349 65.712109 48.211895 17.088077 0.000000 0.000000 0.000000 
-0.020735 0.939410 1.380214 157.302481 -68.943522 -152.954190 -0.566223 5.094030 -20.003171 8.347058 9.374769 25.878144 -13.119415 -8.542461 -3.113358 0.000000 0.000000 0.000000 9.775615 0.368631 -7.503807 -8.615964 2.744579 12.437873 15.613818 27.973764 7.606998 0.000000 0.000000 0.000000 1.724346 -0.134618 4.873300 4.889271 2.550797 -0.634732 -2.465081 -7.192714 1.531616 2.651547 -2.982798 -11.949545 0.000000 0.000000 0.000000 -37.323236 15.194347 17.226503 -33.109106 -21.663099 -7.191763 -15.057695 -28.360734 5.622851 0.000000 0.000000 0.000000 11.633764 -1.708699 -19.374276 42.991324 -12.957771 -7.740187 66.621818 49.656127 16.790816 0.000000 0.000000 0.000000 
-0.032631 0.936184 1.383171 166.136611 -58.018482 -162.651776 -2.068568 6.969534 -22.104281 13.669381 10.178590 27.352398 -23.583626 -13.481234 -1.215964 0.000000 0.000000 0.000000 9.151032 0.170256 -3.906918 -8.196872 2.853354 12.479540 11.533250 29.719901 3.032635 0.000000 0.000000 0.000000 0.185567 0.140287 6.565222 6.692161 4.512082 0.051949 -1.276270 -10.545454 1.373959 -0.363755 0.413545 -10.090422 0.000000 0.000000 0.000000 -39.384154 18.703604 20.540394 -31.586201 -25.568156 -7.916355 -12.273182 -27.699339 4.164873 0.000000 0.000000 0.000000 11.152401 1.742906 -23.756891 39.794855 -15.284552 -7.403775 65.005701 47.202081 14.505594 0.000000 0.000000 0.000000 
